<mxfile host="app.diagrams.net" modified="2024-03-08T18:20:04.203Z" agent="Mozilla/5.0 (Windows NT 10.0; Win64; x64) AppleWebKit/537.36 (KHTML, like Gecko) Chrome/122.0.0.0 Safari/537.36 Edg/122.0.0.0" etag="Y_ASNyip1-eDqtB2b_fT" version="24.0.2" type="github">
  <diagram name="Page-1" id="4lC919Mn0j1O1hlxL7_Y">
    <mxGraphModel dx="1892" dy="1669" grid="1" gridSize="10" guides="1" tooltips="1" connect="1" arrows="1" fold="1" page="1" pageScale="1" pageWidth="850" pageHeight="1100" math="0" shadow="0">
      <root>
        <mxCell id="0" />
        <mxCell id="1" parent="0" />
        <mxCell id="2" value="Arduino and LCD ON" style="whiteSpace=wrap;strokeWidth=2;" parent="1" vertex="1">
          <mxGeometry x="84.5" y="-130" width="140" height="63" as="geometry" />
        </mxCell>
        <mxCell id="pezm39GG2dslDoqCfbj5-52" style="edgeStyle=orthogonalEdgeStyle;rounded=0;orthogonalLoop=1;jettySize=auto;html=1;entryX=0.5;entryY=0;entryDx=0;entryDy=0;" parent="1" source="3" edge="1">
          <mxGeometry relative="1" as="geometry">
            <mxPoint x="155" y="190" as="targetPoint" />
          </mxGeometry>
        </mxCell>
        <mxCell id="pezm39GG2dslDoqCfbj5-53" style="edgeStyle=orthogonalEdgeStyle;rounded=0;orthogonalLoop=1;jettySize=auto;html=1;exitX=1;exitY=0.5;exitDx=0;exitDy=0;entryX=0;entryY=0.5;entryDx=0;entryDy=0;" parent="1" source="3" target="pezm39GG2dslDoqCfbj5-50" edge="1">
          <mxGeometry relative="1" as="geometry" />
        </mxCell>
        <mxCell id="pezm39GG2dslDoqCfbj5-55" style="edgeStyle=orthogonalEdgeStyle;rounded=0;orthogonalLoop=1;jettySize=auto;html=1;exitX=0;exitY=0.5;exitDx=0;exitDy=0;entryX=1;entryY=0.5;entryDx=0;entryDy=0;" parent="1" source="3" target="pezm39GG2dslDoqCfbj5-14" edge="1">
          <mxGeometry relative="1" as="geometry" />
        </mxCell>
        <mxCell id="3" value="Start Scan" style="rounded=1;absoluteArcSize=1;arcSize=14;whiteSpace=wrap;strokeWidth=2;" parent="1" vertex="1">
          <mxGeometry x="114" y="130" width="81" height="36" as="geometry" />
        </mxCell>
        <mxCell id="7" value="" style="curved=1;startArrow=none;endArrow=block;exitX=0.5024219036102295;exitY=1.0121212583599668;entryX=0.5014416092918033;entryY=0.012121258359966856;" parent="1" source="2" target="3" edge="1">
          <mxGeometry relative="1" as="geometry">
            <Array as="points" />
          </mxGeometry>
        </mxCell>
        <mxCell id="pezm39GG2dslDoqCfbj5-56" style="edgeStyle=orthogonalEdgeStyle;rounded=0;orthogonalLoop=1;jettySize=auto;html=1;exitX=0;exitY=0.5;exitDx=0;exitDy=0;entryX=1;entryY=0.5;entryDx=0;entryDy=0;" parent="1" source="pezm39GG2dslDoqCfbj5-14" target="pezm39GG2dslDoqCfbj5-15" edge="1">
          <mxGeometry relative="1" as="geometry" />
        </mxCell>
        <mxCell id="pezm39GG2dslDoqCfbj5-14" value="BMP 280 will scan for Barometric Pressure" style="ellipse;whiteSpace=wrap;html=1;aspect=fixed;" parent="1" vertex="1">
          <mxGeometry x="-50" y="60" width="90" height="90" as="geometry" />
        </mxCell>
        <mxCell id="pezm39GG2dslDoqCfbj5-57" style="edgeStyle=orthogonalEdgeStyle;rounded=0;orthogonalLoop=1;jettySize=auto;html=1;exitX=0;exitY=0.5;exitDx=0;exitDy=0;entryX=0.5;entryY=0;entryDx=0;entryDy=0;" parent="1" source="pezm39GG2dslDoqCfbj5-15" edge="1">
          <mxGeometry relative="1" as="geometry">
            <mxPoint x="155" y="190" as="targetPoint" />
            <Array as="points">
              <mxPoint x="-160" y="110" />
              <mxPoint x="-180" y="110" />
              <mxPoint x="-180" y="180" />
              <mxPoint x="156" y="180" />
            </Array>
          </mxGeometry>
        </mxCell>
        <mxCell id="pezm39GG2dslDoqCfbj5-15" value="Photoresistor will scan for LI(Light Intensity)" style="ellipse;whiteSpace=wrap;html=1;aspect=fixed;" parent="1" vertex="1">
          <mxGeometry x="-160" y="60" width="90" height="90" as="geometry" />
        </mxCell>
        <mxCell id="pezm39GG2dslDoqCfbj5-54" style="edgeStyle=orthogonalEdgeStyle;rounded=0;orthogonalLoop=1;jettySize=auto;html=1;exitX=1;exitY=0.5;exitDx=0;exitDy=0;entryX=0;entryY=0.5;entryDx=0;entryDy=0;" parent="1" source="pezm39GG2dslDoqCfbj5-50" target="pezm39GG2dslDoqCfbj5-51" edge="1">
          <mxGeometry relative="1" as="geometry" />
        </mxCell>
        <mxCell id="pezm39GG2dslDoqCfbj5-50" value="DHT 11 will scan for Humidity and Temperature" style="ellipse;whiteSpace=wrap;html=1;aspect=fixed;" parent="1" vertex="1">
          <mxGeometry x="250" y="60" width="90" height="90" as="geometry" />
        </mxCell>
        <mxCell id="pezm39GG2dslDoqCfbj5-58" style="edgeStyle=orthogonalEdgeStyle;rounded=0;orthogonalLoop=1;jettySize=auto;html=1;exitX=1;exitY=0.5;exitDx=0;exitDy=0;entryX=0.5;entryY=0;entryDx=0;entryDy=0;" parent="1" source="pezm39GG2dslDoqCfbj5-51" target="op5ntRdHQLgQ1cQAzrqG-7" edge="1">
          <mxGeometry relative="1" as="geometry">
            <mxPoint x="155" y="190" as="targetPoint" />
            <Array as="points">
              <mxPoint x="450" y="100" />
              <mxPoint x="470" y="100" />
              <mxPoint x="470" y="180" />
              <mxPoint x="155" y="180" />
            </Array>
          </mxGeometry>
        </mxCell>
        <mxCell id="pezm39GG2dslDoqCfbj5-51" value="Fan will start rotating and generating power" style="ellipse;whiteSpace=wrap;html=1;aspect=fixed;" parent="1" vertex="1">
          <mxGeometry x="360" y="60" width="90" height="90" as="geometry" />
        </mxCell>
        <mxCell id="op5ntRdHQLgQ1cQAzrqG-9" style="edgeStyle=orthogonalEdgeStyle;rounded=0;orthogonalLoop=1;jettySize=auto;html=1;entryX=0.5;entryY=0;entryDx=0;entryDy=0;" edge="1" parent="1" source="op5ntRdHQLgQ1cQAzrqG-7" target="op5ntRdHQLgQ1cQAzrqG-8">
          <mxGeometry relative="1" as="geometry" />
        </mxCell>
        <mxCell id="op5ntRdHQLgQ1cQAzrqG-7" value="Display result on LCD. By scrolling in loop." style="whiteSpace=wrap;html=1;aspect=fixed;" vertex="1" parent="1">
          <mxGeometry x="115" y="250" width="80" height="80" as="geometry" />
        </mxCell>
        <mxCell id="op5ntRdHQLgQ1cQAzrqG-8" value="During the scrolling the last thing LCD will show is if it will rain or not" style="rounded=0;whiteSpace=wrap;html=1;" vertex="1" parent="1">
          <mxGeometry x="96" y="400" width="120" height="70" as="geometry" />
        </mxCell>
        <mxCell id="op5ntRdHQLgQ1cQAzrqG-10" value="RTC will turn on" style="rounded=0;whiteSpace=wrap;html=1;" vertex="1" parent="1">
          <mxGeometry x="95" y="-20" width="120" height="60" as="geometry" />
        </mxCell>
      </root>
    </mxGraphModel>
  </diagram>
</mxfile>
